# xmcd
#
# Track frame offsets: 
#        150
#        19872
#        38195
#        56315
#        71185
#        90902
#        106550
#        122210
#        139580
#        155640
#
# Disc length: 2308 seconds
#
# Revision: 3
# Processed by: cddbd v1.4PL0 Copyright (c) Steve Scherf et al.
# Submitted via: ExactAudioCopy v0.95a3
#
DISCID=7b09020a
DTITLE=Reba McEntire - Read My Mind
DYEAR=1994
DGENRE=Crossover
TTITLE0=Everything That You Want
TTITLE1=Read My Mind
TTITLE2=I Won't Stand In Line
TTITLE3=I Wish That I Could Tell You
TTITLE4=She Thinks His Name Was John
TTITLE5=Why Haven't I Heard From You
TTITLE6=And Still
TTITLE7=The Heart Is A Lonely Hunter
TTITLE8=I Wouldn't Wanna Be You
TTITLE9=Till You Love Me
EXTD=
EXTT0=
EXTT1=
EXTT2=
EXTT3=
EXTT4=
EXTT5=
EXTT6=
EXTT7=
EXTT8=
EXTT9=
PLAYORDER=
